<?xml version="1.0" standalone="no"?>
<!DOCTYPE svg PUBLIC "-//W3C//DTD SVG 1.1//EN" "http://www.w3.org/Graphics/SVG/1.1/DTD/svg11.dtd">
<!--Generator: Xara Designer (www.xara.com), SVG filter version: 6.6.0.0-->
<svg fill="none" fill-rule="evenodd" stroke="black" stroke-width="0.501" stroke-linejoin="bevel" stroke-miterlimit="10" font-family="Times New Roman" font-size="16" style="font-variant-ligatures:none" xmlns:xlink="http://www.w3.org/1999/xlink" xmlns="http://www.w3.org/2000/svg" version="1.1" overflow="visible" width="514.804pt" height="209.018pt" viewBox="61.65 -653.876 514.804 209.018">
 <defs>
	</defs>
 <g id="Ebene 1" transform="scale(1 -1)">
  <path d="M 130.297,504.617 L 130.297,506.713 C 128.564,505.06 126.427,504.253 124.291,504.253 C 120.34,504.253 117.034,506.39 117.034,510.462 C 117.034,515.663 121.912,517.235 126.387,517.235 L 130.297,517.235 L 130.297,518.082 C 130.297,520.419 129.935,522.194 126.387,522.194 C 124.291,522.194 121.993,521.912 121.912,519.896 L 117.921,519.896 C 118.284,524.21 122.477,525.176 126.186,525.176 C 132.071,525.176 134.289,523.161 134.289,517.235 L 134.289,504.617 L 130.297,504.617 M 130.297,514.252 L 125.823,514.252 C 123.524,514.252 121.025,513.405 121.025,510.624 C 121.025,508.447 122.597,507.237 124.694,507.237 C 128.483,507.237 130.297,510.099 130.297,513.486 L 130.297,514.252 Z M 159.26,518.364 L 159.26,518.888 C 159.26,520.501 158.454,522.234 156.56,522.234 C 152.447,522.234 151.641,518.122 151.641,515.058 L 151.641,504.617 L 147.65,504.617 L 147.65,524.814 L 151.641,524.814 L 151.641,522.556 L 151.883,522.556 C 153.173,524.25 155.027,525.176 157.164,525.176 C 160.671,525.176 163.252,522.637 163.252,519.089 L 163.252,518.364 L 159.26,518.364 Z M 179.459,504.253 C 173.573,504.253 170.912,509.334 170.912,514.816 C 170.912,520.258 173.613,525.176 179.822,525.176 C 183.571,525.176 186.715,523.363 187.36,519.533 L 183.369,519.533 C 183.208,521.024 181.475,521.871 179.942,521.871 C 175.75,521.871 174.903,518.203 174.903,514.856 C 174.903,511.671 175.669,507.56 179.741,507.56 C 181.555,507.56 183.289,508.89 183.369,510.664 L 187.36,510.664 C 187.28,506.471 183.208,504.253 179.459,504.253 Z M 212.219,504.617 L 212.219,517.114 C 212.219,519.654 211.655,521.508 208.591,521.508 C 204.358,521.508 203.793,518.807 203.793,515.38 L 203.793,504.617 L 199.802,504.617 L 199.802,533.965 L 203.793,533.965 L 203.793,522.919 C 205.245,524.451 207.301,525.096 209.196,525.096 C 214.396,525.096 216.21,521.427 216.21,516.792 L 216.21,504.617 L 212.219,504.617 Z M 232.62,504.617 L 232.62,521.145 L 226.008,521.145 L 226.008,524.733 L 236.651,524.733 L 236.651,504.617 L 232.62,504.617 M 231.007,529.006 L 231.007,533.965 L 236.651,533.965 L 236.651,529.006 L 231.007,529.006 Z M 257.894,504.253 C 253.015,504.253 251.121,507.439 251.121,511.954 L 251.121,521.831 L 246.928,521.831 L 246.928,525.136 L 251.121,525.136 L 251.121,529.773 L 255.152,530.821 L 255.152,525.136 L 262.449,525.136 L 262.449,521.831 L 255.152,521.831 L 255.152,511.55 C 255.152,509.656 255.475,507.56 257.974,507.56 C 259.345,507.56 261.28,508.205 262.449,509.051 L 262.449,505.423 C 261.159,504.698 259.425,504.253 257.894,504.253 Z M 281.083,504.253 C 275.681,504.253 271.649,508.286 271.649,514.574 C 271.649,520.622 274.592,525.176 280.962,525.176 C 287.291,525.176 289.751,521.065 289.751,515.138 L 289.751,513.969 L 275.641,513.969 C 275.439,510.14 278.019,507.56 281.285,507.56 C 283.985,507.56 285.679,509.293 286.163,510.664 L 290.153,510.664 C 289.629,507.358 286.525,504.253 281.083,504.253 M 280.881,521.871 C 278.261,521.871 275.802,520.178 275.641,517.275 L 285.759,517.275 C 285.719,520.178 283.623,521.871 280.881,521.871 Z M 315.238,504.617 L 306.329,514.293 L 306.329,504.617 L 302.337,504.617 L 302.337,533.965 L 306.329,533.965 L 306.329,517.356 L 314.271,524.733 L 319.511,524.733 L 309.877,516.066 L 320.439,504.617 L 315.238,504.617 Z M 339.683,504.253 C 334.805,504.253 332.911,507.439 332.911,511.954 L 332.911,521.831 L 328.717,521.831 L 328.717,525.136 L 332.911,525.136 L 332.911,529.773 L 336.942,530.821 L 336.942,525.136 L 344.239,525.136 L 344.239,521.831 L 336.942,521.831 L 336.942,511.55 C 336.942,509.656 337.264,507.56 339.763,507.56 C 341.134,507.56 343.069,508.205 344.239,509.051 L 344.239,505.423 C 342.949,504.698 341.214,504.253 339.683,504.253 Z M 368.912,504.617 L 368.912,507.076 C 367.178,505.02 364.356,504.253 361.978,504.253 C 357.462,504.253 354.842,507.157 354.842,511.55 L 354.842,524.814 L 358.834,524.814 L 358.834,511.55 C 358.834,508.729 359.76,507.56 362.744,507.56 C 367.339,507.56 368.912,510.421 368.912,514.574 L 368.912,524.814 L 372.903,524.814 L 372.903,504.617 L 368.912,504.617 Z M 397.871,518.364 L 397.871,518.888 C 397.871,520.501 397.064,522.234 395.169,522.234 C 391.058,522.234 390.252,518.122 390.252,515.058 L 390.252,504.617 L 386.26,504.617 L 386.26,524.814 L 390.252,524.814 L 390.252,522.556 L 390.494,522.556 C 391.784,524.25 393.638,525.176 395.775,525.176 C 399.282,525.176 401.862,522.637 401.862,519.089 L 401.862,518.364 L 397.871,518.364 Z M 445.04,504.617 L 445.04,507.076 C 443.306,505.02 440.484,504.253 438.106,504.253 C 433.59,504.253 430.97,507.157 430.97,511.55 L 430.97,524.814 L 434.961,524.814 L 434.961,511.55 C 434.961,508.729 435.888,507.56 438.872,507.56 C 443.467,507.56 445.04,510.421 445.04,514.574 L 445.04,524.814 L 449.031,524.814 L 449.031,504.617 L 445.04,504.617 Z M 476.111,504.617 L 476.111,517.638 C 476.111,520.379 474.861,521.871 471.959,521.871 C 467.766,521.871 466.033,519.008 466.033,515.138 L 466.033,504.617 L 462.042,504.617 L 462.042,524.814 L 466.033,524.814 L 466.033,522.516 L 466.275,522.516 C 467.565,524.25 470.185,525.176 472.402,525.176 C 477.2,525.176 480.102,521.992 480.102,517.356 L 480.102,504.617 L 476.111,504.617 Z M 505.865,504.617 L 505.865,506.875 C 504.293,505.302 501.995,504.253 499.938,504.253 C 493.891,504.253 490.949,509.091 490.949,514.615 C 490.949,520.097 493.609,525.136 499.656,525.136 C 501.874,525.136 504.293,524.411 505.623,522.596 L 505.865,522.596 L 505.865,533.965 L 509.856,533.965 L 509.856,504.617 L 505.865,504.617 M 500.14,521.831 C 496.31,521.831 494.939,518.122 494.939,514.937 C 494.939,511.55 496.31,507.56 500.422,507.56 C 504.454,507.56 505.865,511.55 505.865,514.937 C 505.865,518.565 504.293,521.831 500.14,521.831 Z M 126.427,451.833 C 120.34,451.833 118.727,454.937 118.727,460.621 L 118.727,481.181 L 122.759,481.181 L 122.759,459.573 C 122.759,456.146 124.089,455.138 127.476,455.138 L 130.136,455.138 L 130.136,451.833 L 126.427,451.833 Z M 142.065,451.833 L 142.065,468.361 L 135.454,468.361 L 135.454,471.949 L 146.097,471.949 L 146.097,451.833 L 142.065,451.833 M 140.453,476.222 L 140.453,481.181 L 146.097,481.181 L 146.097,476.222 L 140.453,476.222 Z M 168.069,451.469 C 162.667,451.469 158.636,455.502 158.636,461.79 C 158.636,467.837 161.579,472.392 167.948,472.392 C 174.277,472.392 176.737,468.281 176.737,462.354 L 176.737,461.185 L 162.627,461.185 C 162.425,457.356 165.005,454.776 168.271,454.776 C 170.972,454.776 172.665,456.509 173.149,457.879 L 177.14,457.879 C 176.616,454.574 173.512,451.469 168.069,451.469 M 167.868,469.086 C 165.247,469.086 162.788,467.394 162.627,464.491 L 172.746,464.491 C 172.706,467.394 170.609,469.086 167.868,469.086 Z M 195.847,444.858 C 191.734,444.858 187.502,446.309 187.421,450.624 L 191.412,450.624 C 191.533,448.93 194.476,448.084 195.806,448.084 C 200.12,448.084 201.41,449.938 201.41,453.163 L 201.41,455.339 L 201.087,455.098 C 199.314,453.767 197.902,453.083 195.685,453.083 C 189.84,453.083 187.38,457.638 187.38,463.04 C 187.38,468.2 190.082,472.392 195.605,472.392 C 197.58,472.392 199.918,471.828 201.127,470.336 C 201.087,470.256 201.127,470.215 201.208,470.215 L 201.41,470.215 L 201.41,472.03 L 205.401,472.03 L 205.401,452.759 C 205.401,446.591 201.249,444.858 195.847,444.858 M 196.25,469.45 C 192.339,469.45 191.372,465.983 191.372,462.798 C 191.372,459.372 192.42,456.025 196.451,456.025 C 200.321,456.025 201.41,459.694 201.41,462.918 C 201.41,466.305 200.2,469.45 196.25,469.45 Z M 227.197,451.469 C 221.794,451.469 217.763,455.502 217.763,461.79 C 217.763,467.837 220.706,472.392 227.076,472.392 C 233.405,472.392 235.864,468.281 235.864,462.354 L 235.864,461.185 L 221.754,461.185 C 221.553,457.356 224.133,454.776 227.398,454.776 C 230.099,454.776 231.793,456.509 232.276,457.879 L 236.267,457.879 C 235.743,454.574 232.639,451.469 227.197,451.469 M 226.995,469.086 C 224.375,469.086 221.916,467.394 221.754,464.491 L 231.873,464.491 C 231.833,467.394 229.736,469.086 226.995,469.086 Z M 262.251,451.833 L 262.251,464.854 C 262.251,467.595 261.001,469.086 258.098,469.086 C 253.906,469.086 252.172,466.224 252.172,462.354 L 252.172,451.833 L 248.181,451.833 L 248.181,472.03 L 252.172,472.03 L 252.172,469.732 L 252.414,469.732 C 253.704,471.465 256.325,472.392 258.542,472.392 C 263.339,472.392 266.242,469.208 266.242,464.572 L 266.242,451.833 L 262.251,451.833 Z M 285.872,451.469 C 282.083,451.469 277.971,452.719 277.89,457.033 L 281.881,457.033 C 282.043,454.614 284.623,454.453 285.953,454.453 C 287.687,454.453 291.073,454.896 291.073,457.396 C 291.073,459.573 289.299,459.895 287.646,460.177 C 285.832,460.5 283.252,461.145 281.599,461.871 C 279.584,462.757 278.616,464.572 278.616,466.668 C 278.616,471.344 283.373,472.392 286.598,472.392 C 290.347,472.392 294.177,470.82 294.177,467.635 L 294.177,467.152 L 290.146,467.152 C 290.024,469.006 287.848,469.41 286.598,469.41 C 285.106,469.41 282.607,469.046 282.607,466.87 C 282.607,465.055 283.856,464.491 285.389,464.168 C 286.437,463.967 287.565,463.765 288.654,463.524 C 291.919,462.757 295.064,461.467 295.064,457.396 C 295.064,452.558 289.823,451.469 285.872,451.469 Z M 314.646,451.469 C 308.76,451.469 306.099,456.549 306.099,462.032 C 306.099,467.474 308.8,472.392 315.008,472.392 C 318.757,472.392 321.902,470.579 322.547,466.749 L 318.556,466.749 C 318.395,468.24 316.662,469.086 315.129,469.086 C 310.937,469.086 310.09,465.418 310.09,462.072 C 310.09,458.887 310.856,454.776 314.928,454.776 C 316.742,454.776 318.476,456.106 318.556,457.879 L 322.547,457.879 C 322.466,453.687 318.395,451.469 314.646,451.469 Z M 347.407,451.833 L 347.407,464.33 C 347.407,466.87 346.842,468.724 343.779,468.724 C 339.545,468.724 338.981,466.023 338.981,462.596 L 338.981,451.833 L 334.99,451.833 L 334.99,481.181 L 338.981,481.181 L 338.981,470.135 C 340.432,471.667 342.489,472.312 344.383,472.312 C 349.584,472.312 351.398,468.643 351.398,464.007 L 351.398,451.833 L 347.407,451.833 Z M 376.813,451.833 L 376.813,453.929 C 375.08,452.276 372.943,451.469 370.806,451.469 C 366.855,451.469 363.549,453.606 363.549,457.678 C 363.549,462.878 368.427,464.451 372.903,464.451 L 376.813,464.451 L 376.813,465.297 C 376.813,467.635 376.45,469.41 372.903,469.41 C 370.806,469.41 368.508,469.127 368.427,467.112 L 364.437,467.112 C 364.799,471.425 368.992,472.392 372.701,472.392 C 378.586,472.392 380.804,470.377 380.804,464.451 L 380.804,451.833 L 376.813,451.833 M 376.813,461.467 L 372.338,461.467 C 370.041,461.467 367.541,460.621 367.541,457.839 C 367.541,455.663 369.113,454.453 371.21,454.453 C 374.999,454.453 376.813,457.315 376.813,460.702 L 376.813,461.467 Z M 399.765,468.684 L 399.765,451.833 L 395.734,451.833 L 395.734,468.684 L 391.138,468.684 L 391.138,471.949 L 395.734,471.949 L 395.734,473.038 C 395.734,478.158 397.71,481.181 403.434,481.181 L 406.74,481.181 L 406.74,477.876 L 404.684,477.876 C 400.612,477.876 399.765,477.069 399.765,473.038 L 399.765,471.949 L 406.74,471.949 L 406.74,468.684 L 399.765,468.684 Z M 426.696,451.469 C 421.818,451.469 419.923,454.655 419.923,459.169 L 419.923,469.046 L 415.73,469.046 L 415.73,472.352 L 419.923,472.352 L 419.923,476.988 L 423.955,478.037 L 423.955,472.352 L 431.252,472.352 L 431.252,469.046 L 423.955,469.046 L 423.955,458.766 C 423.955,456.872 424.277,454.776 426.776,454.776 C 428.147,454.776 430.082,455.42 431.252,456.267 L 431.252,452.639 C 429.961,451.914 428.227,451.469 426.696,451.469 Z M 449.886,451.469 C 444.484,451.469 440.453,455.502 440.453,461.79 C 440.453,467.837 443.396,472.392 449.765,472.392 C 456.094,472.392 458.553,468.281 458.553,462.354 L 458.553,461.185 L 444.444,461.185 C 444.243,457.356 446.823,454.776 450.087,454.776 C 452.789,454.776 454.482,456.509 454.965,457.879 L 458.957,457.879 C 458.433,454.574 455.329,451.469 449.886,451.469 M 449.685,469.086 C 447.064,469.086 444.605,467.394 444.444,464.491 L 454.563,464.491 C 454.522,467.394 452.426,469.086 449.685,469.086 Z M 484.94,451.833 L 484.94,464.854 C 484.94,467.595 483.691,469.086 480.788,469.086 C 476.595,469.086 474.862,466.224 474.862,462.354 L 474.862,451.833 L 470.871,451.833 L 470.871,472.03 L 474.862,472.03 L 474.862,469.732 L 475.104,469.732 C 476.394,471.465 479.014,472.392 481.231,472.392 C 486.029,472.392 488.931,469.208 488.931,464.572 L 488.931,451.833 L 484.94,451.833 Z M 534.529,451.833 L 534.529,453.929 C 532.795,452.276 530.659,451.469 528.522,451.469 C 524.572,451.469 521.265,453.606 521.265,457.678 C 521.265,462.878 526.143,464.451 530.619,464.451 L 534.529,464.451 L 534.529,465.297 C 534.529,467.635 534.166,469.41 530.619,469.41 C 528.522,469.41 526.224,469.127 526.143,467.112 L 522.153,467.112 C 522.515,471.425 526.708,472.392 530.417,472.392 C 536.302,472.392 538.52,470.377 538.52,464.451 L 538.52,451.833 L 534.529,451.833 M 534.529,461.467 L 530.054,461.467 C 527.756,461.467 525.256,460.621 525.256,457.839 C 525.256,455.663 526.829,454.453 528.925,454.453 C 532.714,454.453 534.529,457.315 534.529,460.702 L 534.529,461.467 Z M 559.234,444.858 C 555.123,444.858 550.889,446.309 550.809,450.624 L 554.799,450.624 C 554.92,448.93 557.864,448.084 559.194,448.084 C 563.507,448.084 564.797,449.938 564.797,453.163 L 564.797,455.339 L 564.475,455.098 C 562.701,453.767 561.291,453.083 559.073,453.083 C 553.227,453.083 550.768,457.638 550.768,463.04 C 550.768,468.2 553.469,472.392 558.993,472.392 C 560.967,472.392 563.306,471.828 564.515,470.336 C 564.475,470.256 564.515,470.215 564.596,470.215 L 564.797,470.215 L 564.797,472.03 L 568.789,472.03 L 568.789,452.759 C 568.789,446.591 564.636,444.858 559.234,444.858 M 559.637,469.45 C 555.727,469.45 554.759,465.983 554.759,462.798 C 554.759,459.372 555.807,456.025 559.839,456.025 C 563.71,456.025 564.797,459.694 564.797,462.918 C 564.797,466.305 563.588,469.45 559.637,469.45 Z" fill="#7fa1b7" stroke="none" stroke-linejoin="miter" stroke-width="1" marker-start="none" marker-end="none"/>
  <path d="M 61.65,569.428 L 78.471,569.428 L 78.471,584.395 L 61.65,584.395 L 61.65,569.428 M 61.65,612.58 L 78.471,612.58 L 78.471,627.543 L 61.65,627.543 L 61.65,612.58 M 144.24,603.071 C 141.108,603.764 137.863,604.345 134.844,604.923 C 130.436,605.853 126.843,607.477 126.843,612.699 C 126.843,618.96 134.032,620.005 138.326,620.005 C 141.922,620.005 148.185,618.846 148.532,613.51 L 160.133,613.51 L 160.133,614.896 C 160.133,624.066 149.113,628.587 138.326,628.587 C 129.047,628.587 115.359,625.573 115.359,612.118 C 115.359,606.084 118.142,600.864 123.94,598.315 C 128.698,596.225 136.122,594.371 141.339,593.444 C 146.097,592.629 151.201,591.702 151.201,585.439 C 151.201,578.245 141.456,576.97 136.467,576.97 C 132.64,576.97 125.216,577.433 124.753,584.395 L 113.271,584.395 C 113.503,571.982 125.337,568.385 136.235,568.385 C 147.606,568.385 162.686,571.517 162.686,585.439 C 162.686,597.151 153.636,600.864 144.24,603.071 M 216.159,619.077 C 220.566,619.077 225.555,616.64 226.018,612.347 L 237.504,612.347 C 235.647,623.367 226.597,628.587 215.814,628.587 C 197.949,628.587 190.176,614.434 190.176,598.779 C 190.176,582.999 197.831,568.385 214.77,568.385 C 225.555,568.385 237.271,574.768 237.504,586.829 L 226.018,586.829 C 225.786,581.725 220.799,577.898 215.578,577.898 C 203.866,577.898 201.66,589.73 201.66,598.893 C 201.66,608.519 204.095,619.077 216.159,619.077 M 296.547,628.358 C 291.093,628.358 285.178,626.5 281.002,622.092 L 281.002,653.876 L 269.52,653.876 L 269.52,569.428 L 281.002,569.428 L 281.002,600.401 C 281.002,610.261 282.627,618.031 294.809,618.031 C 303.622,618.031 305.247,612.699 305.247,605.391 L 305.247,569.428 L 316.731,569.428 L 316.731,604.461 C 316.731,617.799 311.512,628.358 296.547,628.358 M 391.205,583.235 L 389.458,583.235 L 383.315,604.345 L 372.762,604.345 L 366.726,584.511 L 364.986,584.511 L 359.535,627.543 L 348.98,627.543 L 357.448,569.428 L 370.324,569.428 L 377.279,593.906 L 378.912,593.906 L 385.867,569.428 L 399.085,569.428 L 407.21,627.543 L 396.652,627.543 L 391.205,583.235 M 462.076,628.587 C 451.409,628.587 439.344,625.805 438.294,613.39 L 449.785,613.39 C 450.011,619.191 456.625,620.005 462.662,620.005 C 472.867,620.005 473.906,614.896 473.906,608.174 L 473.906,605.736 L 462.662,605.736 C 449.785,605.736 435.744,601.211 435.744,586.252 C 435.744,574.535 445.257,568.385 456.625,568.385 C 462.771,568.385 468.921,570.709 473.906,575.461 L 473.906,569.428 L 485.394,569.428 L 485.394,605.736 C 485.394,622.791 479.008,628.587 462.076,628.587 M 473.906,594.951 C 473.906,585.205 468.69,576.97 457.787,576.97 C 451.754,576.97 447.233,580.45 447.233,586.71 C 447.233,594.715 454.423,597.151 461.033,597.151 L 473.906,597.151 L 473.906,594.951 M 551.274,628.472 C 545.018,628.472 537.932,626.268 533.994,620.932 L 533.179,620.932 L 533.179,653.876 L 521.7,653.876 L 521.7,569.428 L 533.179,569.428 L 533.179,575.809 C 537.932,570.709 544.206,568.385 550.47,568.385 C 567.052,568.385 576.454,581.841 576.454,597.386 C 576.454,613.163 569.139,628.472 551.274,628.472 M 549.185,577.898 C 537.478,577.898 533.179,588.456 533.179,598.315 C 533.179,608.755 537.705,618.96 549.771,618.96 C 561.487,618.96 564.963,607.244 564.963,597.734 C 564.963,588.225 560.333,577.898 549.185,577.898 Z" stroke="none" fill="#002c55" stroke-width="1" stroke-linejoin="miter" marker-start="none" marker-end="none"/>
 </g>
</svg>
